<?xml version="1.0" encoding="UTF-8" standalone="no"?><!DOCTYPE svg PUBLIC "-//W3C//DTD SVG 1.1//EN" "http://www.w3.org/Graphics/SVG/1.1/DTD/svg11.dtd"><svg width="100%" height="100%" viewBox="0 0 300 300" version="1.1" xmlns="http://www.w3.org/2000/svg" xmlns:xlink="http://www.w3.org/1999/xlink" xml:space="preserve" xmlns:serif="http://www.serif.com/" style="fill-rule:evenodd;clip-rule:evenodd;stroke-linejoin:round;stroke-miterlimit:2;"><g><g><path d="M139.842,13.556c-4.9,2.043 -13.009,7.798 -18.077,12.81c-11.826,12.068 -16.556,23.764 -17.57,44.185c-0.507,10.397 -1.352,15.038 -2.703,14.481c-6.927,-3.156 -24.835,-8.911 -25.511,-8.169c-0.506,0.372 -1.689,7.427 -2.703,15.595c-2.027,14.481 -2.196,14.852 -12.839,27.105c-10.644,11.882 -10.982,12.253 -15.374,9.654c-2.534,-1.485 -5.744,-2.599 -7.265,-2.599c-3.378,0 -25.172,24.692 -25.172,28.405c-0,2.97 18.753,21.721 21.625,21.721c1.013,-0 6.419,-5.57 11.995,-12.439c10.643,-12.995 12.501,-18.936 8.278,-26.362c-1.69,-3.156 -1.014,-4.827 5.406,-12.625c8.785,-10.582 10.643,-11.696 9.292,-5.755c-0.845,4.085 -7.265,42.886 -16.895,103.594c-2.534,14.852 -5.575,32.674 -6.926,39.729c-1.352,7.055 -2.365,14.852 -2.365,17.266c-0,4.455 0.337,4.641 7.264,3.527c3.886,-0.557 28.72,-4.27 55.244,-8.354c26.524,-4.085 55.752,-8.354 65.043,-9.468c16.219,-2.043 19.091,-2.785 17.57,-4.456c-0.337,-0.371 -14.36,0.371 -31.085,1.671c-43.249,3.713 -95.96,6.683 -96.973,5.569c-0.338,-0.557 0.845,-9.097 3.041,-19.122c2.027,-9.839 9.63,-47.341 16.725,-82.986l13.009,-64.978l11.488,-1.114l-1.183,12.068c-1.013,10.767 -0.676,12.253 2.196,13.923c7.265,4.27 11.32,-1.856 8.448,-12.624c-1.183,-4.27 -1.69,-17.08 -1.183,-32.86c0.676,-27.848 1.521,-31.375 11.826,-45.67c5.744,-8.169 20.104,-16.152 31.592,-17.637c10.475,-1.3 25.342,3.527 34.465,11.324c3.716,3.156 9.123,10.211 11.826,15.781c4.392,8.354 5.237,12.624 5.913,25.248c0.844,18.009 3.378,16.338 -29.227,19.679c-19.936,1.857 -56.949,-0.482 -61.158,-1.485c-2.184,-0.52 -2.196,1.3 -2.196,7.426l-0,8.355l11.488,1.67c14.529,1.857 53.217,1.857 69.267,0c11.995,-1.485 12.164,-1.485 12.164,2.785c-0,2.414 -0.845,5.384 -1.859,6.498c-1.182,1.3 -1.52,4.27 -0.845,7.055c1.014,4.084 1.859,4.827 6.589,4.27c5.237,-0.557 5.406,-0.929 5.068,-7.983c-0.168,-4.085 -0.506,-19.494 -0.844,-34.346c-0.507,-26.177 -0.676,-27.291 -6.082,-39.358c-6.082,-13.552 -14.698,-23.021 -27.2,-29.704c-11.15,-5.941 -31.761,-6.498 -43.587,-1.3Zm-96.447,122.681c-1.183,1.856 -3.736,4.305 -3.229,5.976c1.351,3.898 4.574,3.234 6.601,-0.665c1.352,-2.599 4.38,-1.749 5.225,1.593c0.675,2.97 -1.183,6.869 -7.434,15.038c-4.561,6.126 -9.925,11.835 -11.107,11.835c-2.197,0 -15.49,-13.831 -15.49,-15.873c0,-2.785 18.426,-23.344 20.96,-23.344c2.027,0 5.994,2.655 4.474,5.44Z" style="fill:#f22e76;fill-rule:nonzero;"/><path d="M229.719,79.834c-8.278,3.156 -8.447,3.342 -8.954,11.139c-0.506,7.055 0,7.983 3.886,9.654c4.393,1.856 4.562,2.042 3.548,15.409c-0.676,7.24 -2.196,36.388 -3.548,64.421c-1.52,28.033 -3.379,60.894 -4.392,73.147c-1.014,12.067 -1.183,22.649 -0.338,23.577c0.675,0.743 4.561,0.557 8.447,-0.742c6.42,-1.857 9.292,-1.3 30.747,5.755c13.009,4.27 24.835,7.797 26.355,7.797c2.873,0 3.041,1.3 -3.378,-27.847c-4.055,-18.38 -11.995,-59.595 -26.355,-137.011c-4.562,-24.877 -8.617,-46.042 -9.123,-46.97c-1.521,-2.413 -7.265,-1.856 -16.895,1.671Z" style="fill:#f22e76;fill-rule:nonzero;"/><path d="M167.677,146.065c-7.096,9.283 -3.845,24.181 4.94,28.637c5.913,2.97 11.256,-1.313 13.008,-6.127c1.803,-4.951 3.171,-16.877 -2.196,-23.577c-3.718,-4.644 -11.196,-4.894 -15.752,1.067Z" style="fill:#f22e76;fill-rule:nonzero;"/><path d="M122.071,152.645c-7.096,15.037 3.242,27.812 12.027,15.559c6.251,-8.726 4.223,-23.021 -3.548,-23.021c-2.872,0 -6.621,3.563 -8.479,7.462Z" style="fill:#f22e76;fill-rule:nonzero;"/><path d="M100.478,198.094c-4.392,5.755 7.603,17.265 25.342,24.135c6.119,2.359 12.957,2.838 19.386,2.899c6.366,0.062 13.039,-0.323 19.133,-2.528c5.639,-2.042 11.331,-5.572 16.302,-8.911c1.859,-1.25 6.878,-4.738 9.123,-7.278c0.43,-0.486 0.886,-0.999 1.099,-1.634c0.506,-1.485 -0.169,-3.898 -1.521,-5.569c-2.365,-2.414 -3.379,-2.042 -10.137,3.156c-4.742,3.796 -9.744,7.376 -15.394,9.305c-5.806,1.984 -12.023,2.24 -18.056,2.205c-6.574,-0.039 -13.212,-0.575 -19.471,-2.948c-5.659,-2.142 -10.658,-5.768 -15.162,-10.047c-6.42,-6.313 -7.772,-6.684 -10.644,-2.785Z" style="fill:#f22e76;fill-rule:nonzero;"/></g></g></svg>